# xmcd
#
# Track frame offsets:
#	150
#	14948
#	31226
#	47273
#	64148
#	83035
#	109073
#	136073
#	157073
#	175225
#	193448
#	209198
#
# Disc length: 3017 seconds
#
# Revision: 0
# Processed by: cddbd v1.5.2PL0 Copyright (c) Steve Scherf et al.
# Submitted via: EasyCDDAExtractor 16.0.0.1
#
DISCID=ae0bc70c
DTITLE=Timo Rautiainen and Neljäs Sektori - Sarvivuorelta sektoriin 2006-2015
DYEAR=2015
DGENRE=
TTITLE0=Peliliike
TTITLE1=Askelmerkit
TTITLE2=Piru minut periköön
TTITLE3=Vastavirtaan
TTITLE4=Koiran laulu
TTITLE5=Kirvesmies ja riivaaja
TTITLE6=Lintu
TTITLE7=Tulkaa kotiin
TTITLE8=Kaikki maailman aika
TTITLE9=Oma arkipyhä
TTITLE10=Nuotiolla
TTITLE11=Synkkien puolue
EXTD=
EXTT0=
EXTT1=
EXTT2=
EXTT3=
EXTT4=
EXTT5=
EXTT6=
EXTT7=
EXTT8=
EXTT9=
EXTT10=
EXTT11=
PLAYORDER=
